<svg xmlns="http://www.w3.org/2000/svg" viewBox="0 0 258 258">
  <g fill="#352f29" transform="matrix(.1 0 0 -.1 0 258)">
    <path d="M0 2568v-15l53-12c152-34 301-153 372-298 38-77 54-137 61-223l6-75-16-75-16-75-37-74-38-75-65-65-65-66-71-38c-39-20-96-43-125-51l-54-13-3-17-4-17 39 7c21 3 68 19 105 34l67 28 65 46 64 46 42 52c23 29 57 83 76 120l34 68 15 62 15 63v161l-15 59c-8 33-32 94-52 135l-36 75-77 77-77 78-84 40-84 40-47 6-48 7v-15zm195-20c78-40 149-97 203-161l43-52 39-80 38-80 11-53 11-53v-181l-16-61c-33-127-108-246-208-329l-61-51-70-34-70-33-57-12-58-12v-35l33 6c210 38 390 180 483 378l32 70 18 85 17 84-7 82-6 82-21 68c-11 38-36 97-56 132l-34 63-62 66-62 66-59 39-59 38h-41l-41-1 60-31zm707-8-60-40-60-64c-71-77-111-144-148-251l-28-80 1-120v-120l26-80 26-80 35-58c95-157 234-262 410-309l70-18h96v26l-82 11-83 11-58 22c-32 12-92 44-133 72l-75 50-50 60-50 60-34 69-35 69-15 62-15 63v181l15 59c8 33 32 94 52 135l36 75 81 81 81 81 70 36 70 36-41 1h-42l-60-40zm182 26c-22-7-69-28-105-47l-64-33-75-76-76-75-32-62-32-62-20-77-20-77v-153l15-59c35-134 105-247 209-333l51-43 70-33c69-33 126-49 218-62l47-6v42h-43c-98 0-231 54-329 133l-55 46-47 68-46 68-25 70-24 70-6 75-7 75 16 75 16 75 40 81 39 81 75 70 74 71 64 31c69 33 172 61 226 61h32v20l-72-1h-73l-41-13zm236-9c0-41 31-130 73-211l41-79 71-71 70-71 65-38 65-38 80-26 80-26h240l80 26 80 26 64 38 65 38 62 60c34 33 75 82 93 109l31 50v70l-36-59c-98-163-239-270-407-310l-62-15h-180l-63 15c-158 37-299 139-391 284l-41 64-25 79c-14 44-25 86-25 94v14h-30v-23zm56-4c17-72 49-153 82-208l36-60 62-61 61-60 71-37 71-38 77-19 77-20h144l77 20 77 19 70 37 70 37 58 56c65 63 121 144 151 221l20 51v89h-8c-5 0-14-25-21-55-7-31-28-86-46-123l-34-67-45-51-45-51-68-47-68-46-57-20c-32-11-91-25-131-31l-74-11-72 11c-40 6-98 20-129 31l-57 20-68 46-68 47-45 51-45 51-34 67c-18 37-39 92-46 123l-12 55h-37l6-27zm60 0c27-117 82-213 167-294l51-49 66-35c37-19 93-41 126-50l58-15h162l58 15c33 9 90 32 127 51l68 36 49 47c83 80 139 178 166 294l6 27h-37l-7-38c-3-21-22-71-42-111l-36-73-57-57-56-57-55-31c-30-17-80-39-110-49l-55-19h-200l-55 19c-30 10-79 32-109 49l-54 30-57 57-57 57-37 73c-20 40-39 91-42 112l-7 38h-37l6-27zm54 19c0-5 9-35 20-67 50-147 170-264 322-316l63-22h180l64 22c155 54 277 176 326 329 18 56 16 68-10 59l-15-6v-18c0-29-48-123-90-179l-39-52-61-41-62-41-65-20-65-20h-146l-65 20-65 20-62 41-61 41-38 52c-45 60-70 106-86 161l-12 40-17 3-16 3v-9zm64-19c4-16 20-56 37-90l29-61 60-55 59-55 55-26 54-26 70-12 70-12 69 13 68 12 62 31 62 30 56 59 56 58 24 53c13 29 27 65 30 81l7 27h-33l-5-17c-3-10-17-44-31-75l-26-57-51-51-50-51-66-32-65-32h-220l-65 32-66 32-50 51-51 51-26 57c-14 31-28 65-31 75l-5 17h-33l6-27zm56 14c0-8 14-41 31-75l30-61 55-50 54-50 58-22 57-23h180l57 23 58 22 54 50 55 50 30 61c17 34 31 67 31 75v13h-30l-11-27c-21-58-46-96-92-140l-48-44-57-27-57-26h-160l-57 26-57 27-48 44c-46 44-71 82-92 140l-11 27h-30v-13zm60 1c0-7 13-36 30-64l29-52 42-36 42-36 54-20 54-20h128l54 20 54 20 42 36 42 36 29 52c17 28 30 57 30 64v12h-30l-14-34c-8-19-31-53-52-76l-38-42-50-26-51-26h-160l-51 26-50 26-38 42c-21 23-44 57-52 76l-14 34h-30v-12zm60 7c0-3 9-23 20-44 23-47 70-87 129-114l45-19h121l38 16c59 24 97 55 128 104 16 25 29 50 29 55v8l-14-3c-7-2-29-23-47-48l-34-45-54-27-55-28h-102l-55 28-54 27-34 45c-29 40-61 63-61 45zm60-1c0-3 9-19 21-35l20-29 47-27 47-28h120l47 28 47 27 20 29c25 35 26 41 5 41h-15l-25-29c-13-16-39-36-58-45l-34-16h-94l-34 16c-19 9-45 29-58 45l-25 29h-15c-9 0-16-3-16-6zm72-6c3-7 22-23 44-35l39-23h78l44 25c70 42 49 64-24 25-21-11-47-20-58-20s-37 9-58 20c-20 11-44 20-53 20h-16l4-12zm106 5c12-2 30-2 40 0l17 5-40-1h-40l23-4zm-793-44c-66-11-128-35-197-75l-56-34-56-61-57-61-28-57c-16-31-37-83-46-115l-17-58 4-107 5-106 21-60c28-76 81-156 144-216l49-47 68-36 68-36 64-15c35-8 79-15 97-15h32v29l-47 6c-69 9-168 41-222 73-25 14-70 51-101 82l-55 55-32 61-32 61-16 64c-28 121-16 234 38 349l30 65 71 71 71 71 52 27c63 31 153 56 205 56h38v40l-22-1c-13-1-45-5-73-10zM0 2511v-18l38-7c21-3 70-21 108-40l69-35 48-46c62-60 112-136 138-210l21-60 5-80 5-80-11-58-12-57-34-68c-19-37-53-88-75-114l-40-47-61-40-62-41-68-21-69-21v-30l38 6c55 10 159 61 220 108l54 42 44 62c25 35 56 89 69 121l23 59 10 71 10 72-8 69-9 69-22 59c-43 115-136 226-239 286-42 25-157 68-180 68H0v-19zm1134-50c-197-56-339-228-360-435l-6-61 12-65 11-65 34-70 33-70 44-46c56-58 121-103 189-129l52-21 64-6 63-6v29l-71 11-70 11-65 32-65 32-55 53-54 54-37 77-37 78-4 92-4 91 17 59c25 86 51 131 113 196l55 58 68 34 68 34 70 12 71 12v28l-37-1c-21 0-65-8-99-18zM1 2456l4-17 50-17c72-25 133-63 188-118l48-49 37-74 36-73 4-94 4-94-12-47c-15-64-54-138-98-192l-36-44-59-38-60-39-53-17-54-17v-34l37 10c21 5 67 24 102 41l63 31 57 57 57 56 32 60 31 60 16 64c27 116 16 215-38 329l-30 65-68 68-67 67-64 30c-34 16-78 33-97 36l-33 7 3-17zm1134-54c-75-26-135-65-187-120-53-57-79-104-103-187l-18-59 6-84 5-84 35-71 36-72 42-44c76-78 155-118 277-136l42-7v39l-56 6-55 6-65 30-65 30-48 50-49 51-26 53-26 53-12 64-11 64 12 65 12 66 31 58 31 58 58 54 58 53 55 21c30 11 77 23 105 27l51 7v27h-42l-43-1-50-17zM0 2396v-13l60-22 61-22 62-59 63-59 28-57 28-56 11-65 10-65-11-61-11-61-28-55-27-56-48-48-48-48-62-29c-35-17-69-30-75-30H0v-39l45 13c64 20 132 62 183 115l45 46 36 75 36 75v220l-32 68-32 67-52 55-52 55-70 35c-38 19-78 35-88 35H0v-14zm1194-36c-62-13-129-48-183-96l-48-43-34-63-34-63v-220l27-56 28-55 47-49 48-48 60-28 60-28 53-7 52-7v32l-37 6c-69 12-127 35-174 69l-46 34-32 48-32 49-16 54-15 55 4 67 5 68 27 55 27 55 54 50 55 50 55 20 56 21h69v40l-17-1c-10-1-36-5-59-9zM0 2341v-18l45-18 45-17 55-49 54-50 27-55 27-55 5-68 4-67-15-55-16-54-32-49-32-48-46-34c-25-19-63-39-83-46l-38-11v-38l23 7c12 3 43 17 68 30l46 23 46 46 46 45 26 54 26 54 9 59 8 58-10 58c-12 77-40 136-95 197-49 54-90 83-152 105l-41 14v-18zm1173-45c-60-19-107-51-153-103l-40-46-21-70-22-69 7-56c4-30 15-75 25-98l19-43 43-46 43-47 49-24 49-25 49-6 49-6v30l-42 7c-62 10-118 38-162 81l-39 39-25 54-24 54 4 77 5 76 17 33c9 18 34 52 54 74l37 41 50 23c28 13 60 24 72 24 32 0 53 10 53 26v14l-27-1c-16 0-47-6-70-13zM0 2281v-19l33-13c17-7 52-32 76-54l44-40 23-50 24-50v-142l-31-62-31-61-46-35c-25-20-56-38-69-41l-23-6v-19c0-24 0-24 55 2l45 21 41 42 42 41 26 55 25 55v160l-21 46c-35 78-109 149-186 178l-27 11v-19zm1154-55-50-23-37-43-36-43-17-50-17-50 6-57 5-56 20-40c40-78 115-132 205-148l37-7v41h-27c-16 0-46 9-69 19l-41 19-37 38-36 38-16 54-16 55 6 39c4 22 15 57 26 78l19 38 41 34 40 35 39 11c21 7 46 12 55 12h16v30h-65l-51-24zM1 2223v-18l42-30c50-36 83-83 98-139l12-41-12-54-11-55-25-37-25-38-40-23-40-23v-17c0-24 10-23 58 10 49 33 86 79 108 139l17 43-5 63-5 63-18 34c-24 48-73 98-117 121l-38 19 1-17zm1219-32c-68-21-114-59-144-118l-16-32v-55c0-30 5-67 11-83 23-61 118-132 177-133h22v29l-42 12c-24 6-55 20-70 30l-26 19-21 43-21 43v37c0 21 6 52 14 70l13 32 37 33 37 32 39 6 40 7v37l-12-1c-7 0-24-4-38-8zM0 2163v-19l31-30c38-36 59-81 59-131v-37l-21-43-21-44-24-16-24-15v-39l18 10c31 17 74 65 89 100l14 34v105l-19 38c-19 36-39 59-84 93l-18 13v-19zm1204-37-31-14-29-37-28-37v-53l-1-53 21-29c11-15 36-38 54-50l33-23h47v30h-11c-6 0-26 7-45 16l-35 17-14 28-15 28v79l25 31 26 30 34 11 35 12v28h-17c-10-1-32-7-49-14zM1 2090c0-14 6-34 14-44l15-20v-77l-16-30c-8-17-14-38-12-47l3-16 23 24c12 13 27 41 34 61l11 37-7 36-7 37-29 32-29 32v-25zm1198-39-29-29v-72l28-29c15-16 37-32 50-36l22-6v39l-24 6-23 6-13 30-12 30 16 24c8 14 25 27 36 31l20 6v29h-42l-29-29zm49-32-18-10v-22c0-22 16-47 30-47 4 0 7 20 8 45 0 25-1 45-1 45-1 0-10-5-19-11zM3 1985v-40l4 23c2 12 2 30 0 40l-5 17 1-40zm1842-21-70-15-93-45-92-45-78-77-78-77-42-82-43-82-19-77c-11-43-20-97-20-121v-43h28l7 63c16 139 76 272 165 370l50 55 68 46 67 46 75 26 75 26 70 7 70 6 71-7 70-6 73-25 72-25 65-42 64-42 54-59c30-32 71-87 90-121l36-63v71l-31 50c-17 27-63 80-101 117l-70 68-92 44-91 44-77 15-77 16-63-1c-35 0-94-7-133-15zm35-51c-95-16-215-73-298-142l-60-50-47-71-48-71-25-72-25-72-5-67-5-68h33v33c0 19 9 69 20 111l20 77 32 62 33 62 65 66 65 65 55 31c30 17 84 41 120 54l65 22h220l65-22c36-13 90-37 120-54l55-31 65-65 65-66 32-60c36-68 59-144 72-230l9-60 1 92 1 92-21 53c-11 29-41 83-65 120l-45 68-52 45-52 46-90 44-90 44-59 10c-58 11-175 13-226 4zm-68-78c-121-42-210-107-278-201-57-79-83-142-100-238-14-81-13-96 12-96h14v38c0 56 27 148 63 216l32 61 61 62 62 61 73 35c162 77 306 77 468 0l73-35 62-61 61-62 32-61c37-69 63-160 63-217v-38l18 3 17 4-3 39c-7 107-45 208-113 299l-44 58-65 49-65 49-70 26-70 27-115 4-115 4-73-26zm73-40c-111-24-182-64-267-151l-48-48-34-70-35-71-10-59c-6-33-11-68-11-79v-18l18 3 17 3 7 63 7 63 26 57c14 31 43 80 65 108l39 52 61 41 62 41 65 20 65 20h146l65-20 65-20 62-41 61-41 39-52c22-28 51-77 65-108l26-57 7-63 7-63 19-3 19-4-8 57c-15 122-64 222-151 308l-55 55-62 31-62 31-70 15c-84 18-121 18-200 0zm5-56c-25-5-73-23-107-40l-63-32-54-56c-29-31-63-75-74-96-27-54-52-141-52-182v-33h27l12 67 12 67 26 53 27 54 49 50 50 49 66 33 66 32h220l67-33 67-33 46-46 46-46 29-57 29-58 12-66 12-66h27v33c0 41-25 128-52 182-11 21-45 65-74 96l-54 56-63 32-62 31-54 10c-62 12-118 11-181-1zm-11-62c-65-19-129-58-178-112l-43-46-26-57-26-57-4-52-4-53h32v24c0 13 9 54 20 90l21 66 54 58 54 59 63 28 63 29h160l61-28 61-27 46-47c56-58 85-113 100-192l12-60h28l-6 55-6 55-25 55-25 54-47 51-47 50-63 31-63 31-83 4-83 4-46-13zm-15-68-52-20-46-40-45-40-30-62-30-62-3-40-3-39 18-4 17-3v28c0 16 7 50 16 76l16 46 40 46 41 46 51 27 51 27h160l51-27 51-27 41-46 40-46 16-46c9-26 16-60 16-76v-28l17 3 18 3-3 40-3 40-30 62-30 62-45 40-46 40-54 21-55 20-67-1h-67l-51-20zm63-40c-48-11-86-31-126-65l-32-27-24-47c-14-27-28-67-31-90l-7-42 19 4 18 3 8 45 8 45 28 40c15 22 47 53 71 70l43 30h166l43-30c24-17 56-48 71-70l28-40 8-45 8-45 18-3 19-4-7 42c-3 23-17 63-31 90l-24 47-33 28c-43 37-102 62-158 69l-45 5-38-10zm-9-63c-56-20-85-42-113-84l-24-37-7-42-7-43h31l11 44 11 44 25 30c14 16 40 37 59 46l34 16h94l34-16c19-9 45-30 59-46l25-30 11-44 11-44h28v19c0 30-21 84-47 119l-24 32-40 21-40 20-47 5-47 4-37-14zm-12-69-39-22-18-35c-11-19-19-45-19-57v-23h28l6 31 6 30 28 29 29 29 35 6 35 7 36-16 37-15 20-33c11-18 20-41 20-50v-18h33l-6 34c-3 19-13 46-23 61l-17 26-38 20-38 19h-76l-39-23zm29-49c-29-16-44-40-45-65v-23h26l11 30 11 29 27 7 26 7 24-11 24-11 7-26 6-25h28v23c-1 59-87 98-145 65zm27-54c-12-8-22-19-22-23v-8h91l-4 10c-2 6-12 16-23 24l-20 13-22-16zM30 1258c0-55 29-158 63-227l32-66 70-70 70-71 60-31c33-17 88-38 121-47l62-16h168l59 15c32 9 86 30 119 48l61 31 71 71 71 70 31 65c36 75 62 167 62 222v38h-28l-7-52c-8-65-30-138-61-200l-24-47-60-64-60-64-69-37-68-36-64-15c-122-28-244-13-360 46l-62 31-50 46c-28 26-68 74-89 107l-39 59-19 66c-10 36-21 86-25 113l-6 47H30v-32zm60-6c0-54 26-147 58-206l27-50 60-62 60-61 75-36 75-36 73-11 72-12 73 11 72 11 71 35 70 34 49 43 49 43 38 59 38 60 20 64 20 64v88h-26l-11-71-11-71-36-73-36-73-60-55-59-55-54-26c-71-33-127-46-207-46-81 0-137 13-209 48l-56 27-63 62-62 61-31 67-32 67-11 69-10 69H90v-38zm55 29c-3-6 1-42 9-81l15-71 28-52 28-52 52-53 53-53 65-30 65-31 65-11 65-11 65 11 65 11 65 31 65 30 54 54 54 54 27 53 27 52 14 67c7 36 14 72 14 79v12h-40v-35c0-49-35-150-71-201-38-56-101-108-169-142l-55-27H475l-57 28-57 28-50 45-51 46-35 72-36 72-6 57-6 57h-13c-7 0-15-4-19-9zm55-5c0-36 24-125 47-169l24-49 45-45 45-45 67-31 67-32h190l67 32 67 31 46 47 47 46 28 62 29 62 7 54 7 53-19-4-19-3-6-52-7-52-23-48-23-48-52-52-53-51-55-21c-30-11-76-23-103-27l-49-6-64 16-64 17-48 30c-57 37-90 75-124 140l-24 49-8 52-7 53-18 3-17 3v-15zm64-33c3-25 17-69 30-97l23-51 39-39 39-39 63-29 62-30 83 4 82 3 47 23c26 13 66 41 88 64l42 40 25 55 26 56 5 43 5 44h-30l-12-58-11-59-30-46-29-46-42-31-42-30-50-15c-91-27-181-13-259 41l-40 28-27 40c-31 47-47 85-56 139l-6 37h-32l7-47zm56 15v-33l24-50 23-50 43-38c23-22 59-46 79-55l36-15 65-1h65l48 23c62 30 104 73 133 136l24 50v65h-28l-6-45-7-44-32-48-32-47-54-28-53-28H535l-41 19-41 19-36 37-36 37-15 46c-9 25-16 54-16 64v18h-30v-32zm59 25c-7-44 24-113 68-155l28-27 44-16c51-18 82-19 135-4l38 11 44 40 44 41 15 49c15 53 13 68-11 68h-14v-22c0-12-9-41-21-65l-21-43-42-25-43-25H539l-28 14c-15 8-42 31-59 51l-32 36-6 39-7 40h-13c-8 0-14-3-15-7zm56-25c8-39 31-74 69-102l27-21h118l27 21c39 29 63 63 70 103l7 33-18-3-19-4-7-29c-11-38-45-73-85-86l-34-12-34 12c-40 13-74 48-85 86l-7 29-18 3-18 4 7-34zm59 5 7-28 25-22 25-23h81l29 29 29 29v42h-27l-11-25-12-25-25-12-25-11-25 11-25 12-12 25-11 25h-29l6-27zm56 11c0-7 9-18 20-24l20-11 20 11c11 6 20 17 20 24v13h-80v-13zm626-6c-2-13-9-54-14-92l-11-70-35-70c-78-157-203-262-371-312l-60-18H495l-59 18c-33 10-86 31-118 47l-58 29-67 64-68 64-33 54c-42 71-72 157-82 238l-8 65 1-105 2-105 35-70 35-70 80-80 80-80 62-33 62-32 77-20 77-20h154l77 20 77 20 62 32 62 32 80 81 80 80 37 75 37 75 15 77c9 42 16 89 16 103v25h-30l-4-22zm51-45-6-68-20-65c-11-36-37-94-58-129l-38-64-61-61-61-61-57-34c-31-18-87-45-124-59l-67-26H445l-67 26c-37 14-93 41-124 59l-56 34-62 61-61 62-38 63-37 64v-68l31-48c17-26 61-77 98-112l68-64 54-31c30-17 90-43 134-58l80-28h120l120-1 75 23c41 13 104 40 140 60l65 36 64 60c129 124 204 276 213 436l3 54-16 4-16 3-6-68zm83 32v-15h33c53 0 181-36 255-72l67-33 81-80 81-80 27-50c15-27 39-83 53-124l24-74 6-86 5-86-16-75-16-75-39-80-40-80-55-61-56-62-57-38c-32-21-82-48-113-61l-55-23h97l62 37 61 37 65 67 65 66 33 56c18 30 45 88 59 129l26 73 5 106 4 107-17 76-17 77-41 82-41 82-80 80-81 80-70 37-70 37-75 20-75 21h-95v-15zm1170-8c-41-13-104-38-140-57l-65-35-81-80-80-80-41-82-41-82-17-77-17-76 4-107 5-106 26-73c14-41 41-99 59-130l33-56 66-66 65-67 63-36 62-37h94l-57 24c-75 31-175 103-233 168l-46 53-40 80-39 80-16 75-16 75 5 86 6 86 24 74c14 41 38 97 53 124l27 50 81 80 81 80 68 33c38 19 100 41 138 50l69 17v35l-12-1c-7 0-47-10-88-22zm-1170-46v-21h38c55 0 147-26 222-62l65-31 76-76 76-76 31-65c17-36 38-92 47-125l15-59V524l-15-58c-9-33-32-91-52-130l-37-71-61-61-60-60-49-29c-69-40-163-73-235-81l-61-7V-3l68 6 67 6 64 22 63 22 75 49 74 50 51 62 51 61 35 74 34 75 15 80 14 81-6 65c-8 89-30 163-73 244l-36 70-54 57-53 58-64 40-64 41-73 24c-40 13-99 27-130 31l-58 6v-20zm1162-16-73-25-64-41-64-40-53-58-54-57-36-70c-43-81-65-155-73-244l-6-65 15-83 15-84 34-71 34-72 51-61 51-62 75-50 74-50 64-20c35-11 75-23 91-26l27-6v35l-52 13c-29 6-84 27-123 46l-70 35-57 50-56 51-40 63c-21 34-49 89-62 122l-23 60-5 100-4 100 16 65c9 36 30 94 48 130l31 65 76 76 76 76 65 31c36 18 90 38 120 45l55 14 3 17 3 16h-18c-10 0-51-12-91-25zm-1162-39v-15l48-6c62-9 135-32 197-63l50-25 66-66 66-66 26-50c14-28 33-78 43-110l17-60 1-80v-80l-22-71-22-71-41-62-40-61-51-44c-81-71-211-126-300-126h-38V50h18c9 0 49 7 87 15l70 15 74 36 74 37 61 61 61 61 37 71 38 71 15 64 15 64v122l-20 77-20 77-27 52-28 52-70 71-70 71-65 31c-72 35-167 62-217 62h-33v-14zm1163-20c-157-58-278-182-334-342l-20-59-6-85-5-85 16-69 16-69 38-71 37-71 60-60 60-60 60-32c63-33 173-69 182-59 3 3 3 12 0 19l-5 14-38 8c-21 3-66 20-100 37l-62 30-50 44-51 44-40 61-41 62-22 71-22 71v80l1 80 17 60c10 32 29 82 43 110l26 50 66 66 66 66 50 25c28 14 76 34 108 44l57 18v26l-22-1c-13 0-51-10-85-23zm-1163-39v-13l71-12 71-12 54-26 55-26 58-54 58-54 36-67 35-68 11-53c22-107 7-211-45-314l-26-52-57-56-56-57-65-30c-36-17-83-34-105-38-22-3-52-9-67-11l-28-6v-28h28c45 0 138 28 202 60l61 31 57 57 57 58 27 50c15 28 34 77 43 109l15 59v154l-20 63c-35 115-102 204-204 270l-60 39-64 20-64 20h-78v-13zm1210-6c-79-25-128-53-184-102l-50-44-38-59-38-60-20-64-20-64V534l15-59c9-32 28-81 43-109l27-50 58-59 59-59 71-34c40-18 87-37 105-40l32-6v30l-56 18-56 17-57 37-57 37-38 44c-125 145-150 342-64 512l29 59 42 45c53 59 130 108 201 130l56 17v18c0 10-1 18-2 17-2 0-28-8-58-18zm-1210-49v-19l53-6 52-5 58-25 57-26 55-52 56-53 32-65 32-66V504l-38-76-37-77-48-42-47-42-59-28-59-28-53-7-54-6v-28h34c19 0 63 9 98 20l64 20 56 40 56 40 36 49c48 65 72 122 86 201l11 65-10 64-10 64-30 63-30 63-45 49-46 49-58 30c-63 34-106 48-169 58l-43 7v-20zm1199-16c-80-32-120-59-169-112l-42-45-29-63-29-63-11-61-11-62 11-67 12-68 30-63 31-64 53-53 53-53 53-26c30-14 69-29 87-32l32-6v32h-12c-7 0-40 13-73 29l-60 28-47 42-48 42-37 77-38 76v211l32 66 32 65 56 53 55 52 55 25c31 13 62 24 70 24h15v20c0 25-2 25-71-4zm-1199-40v-14l23-6c12-3 31-6 43-6 11 0 48-14 81-30l61-31 40-43c52-57 78-108 91-182l11-60-10-53c-5-29-19-72-29-97l-20-44-48-48-48-48-49-22-48-23-49-6-49-6v-39l43 7c143 24 244 100 303 229l25 55 6 69 6 70-22 68-21 69-35 47c-19 27-56 64-83 83l-47 35-64 20c-35 11-74 20-87 20h-24v-14zm1213-14c-24-9-63-31-87-49l-45-32-36-48-35-48-21-68-22-69 5-67 5-68 26-57c49-106 113-167 216-206l51-20v36l-37 13c-117 42-199 142-223 273l-10 52 11 60 11 61 26 48 26 48 44 40 43 41 55 25 54 24v15c0 17-5 17-57-4zm-1213-44v-15l41-7c89-14 173-76 215-158l24-47 6-54 6-54-16-55-15-54-31-43-31-42-46-29-47-30-35-6c-20-3-44-8-53-11l-18-4v-32l43 7c23 4 65 18 94 30l51 24 40 42c23 22 51 62 63 87l23 47 4 75 4 76-21 56-22 57-38 44-39 44-51 27-50 28-51 6-50 6v-15zm1202-24-52-26-40-45-39-45-21-54-20-55V553l14-45c7-25 27-65 44-90l30-44 39-27c21-14 55-33 76-42l37-15v36l-33 12c-18 7-52 28-75 47l-41 36-28 57-28 57v75l1 75 26 51 26 50 40 36c22 20 56 42 76 49l36 13v18c0 24-6 23-68-8zm-1202-32v-19l42-6 41-6 41-28c22-16 54-48 70-71l30-43 4-67 3-67-28-55-28-55-47-32-48-31-40-7-40-7v-28h23c13 0 44 7 70 16l46 16 42 40 41 40 21 46 20 47v120l-22 51-22 51-32 31c-34 33-100 65-154 77l-33 7v-20zm1225-19c-16-8-44-29-62-45l-32-31-22-51-22-51V545l20-47 21-46 41-40 42-40 29-11 30-10-1 17v17l-47 30-47 30-28 55-28 55 3 66 3 66 28 42 28 42 45 31 44 32v13c0 17-8 16-45-4zm-1225-37v-15l40-11 39-11 31-25c35-30 50-55 61-104l8-35-10-40c-6-22-20-52-31-68l-20-27-38-20c-22-11-48-20-60-20h-20v-39l33 5c17 3 52 18 77 33l44 26 29 55 29 55-5 58-5 58-26 40-26 39-38 24c-20 14-54 28-74 31l-38 7v-16zm1205-50-44-44-10-38c-6-22-11-55-11-75v-35l26-52 26-53 37-25 36-24 3 14 3 15-39 39-39 39-11 44-11 44 8 35c11 49 25 74 61 103l30 26v15c0 26-18 18-65-28zm-1205-8v-13l40-17 39-16 21-34 20-33v-62l-23-34-23-34-34-11-35-12-3-16-3-16h18c10 0 36 10 57 23l39 22 18 35 19 35v90l-20 33-20 32-32 20c-18 11-43 20-55 20h-23v-12zm1237-37c-33-40-41-69-35-126l5-43 22-31c40-56 58-29 21 31l-20 33v60l21 34 20 33-3 21-3 21-28-33zm-1237-21v-20h13c8 0 21-8 30-18l17-19v-53l-20-20c-11-11-24-20-30-20-5 0-10-7-10-15 0-18 11-19 44-4l25 12 16 34 16 34-11 34c-12 38-24 49-63 64l-27 11v-20zm2-84v-45l14 6c8 3 17 16 20 29l6 24-12 15c-7 8-16 15-20 15h-8v-44zm1254 20-6-24 9-24 10-23v48c1 52-4 60-13 23zM460 586C286 549 121 438 26 295L0 255v-70l39 65 39 65 61 60 61 60 61 37c34 20 91 47 128 60l66 23h140l140-1 67-26c37-14 93-41 124-59l57-34 61-61 61-62 38-63 38-64 19-65c10-36 21-77 24-92l6-28h30v16c0 34-33 141-60 196-43 86-81 138-153 205-78 73-146 113-250 148l-78 26-97 4-97 4-65-13zm-15-62c-33-8-92-31-132-50l-72-36-65-59-64-59-40-63c-21-34-47-82-56-107l-17-46 3-54L5-5l14 55c7 30 29 88 48 128l34 73 63 67 64 67 63 38 64 38 70 21 70 22h190l59-18c33-10 87-31 120-48l61-31 76-76 76-76 36-75c20-42 41-99 47-128l12-52h28v18c0 35-31 129-62 192l-33 65-80 81-81 81-75 36c-41 20-103 43-139 51l-65 16-80-1-80-1-60-14zm1-59c-27-8-76-27-110-44l-61-30-56-50-57-51-37-56-38-57-23-66C51 75 40 35 40 23V0h26l21 73 22 72 39 60 38 60 54 48 54 49 58 29c113 57 237 72 357 44l64-15 68-36 69-37 61-65 61-65 29-60c15-33 33-81 40-108l13-49h34l-9 39c-5 22-18 65-30 95l-20 55-43 58c-23 32-64 77-91 101l-48 42-62 31c-33 16-85 36-115 44l-55 15-90-1-90-1-49-13zm67-46c-28-4-76-18-107-29l-55-21-60-44-59-44-41-53c-43-57-76-127-90-189L92 0h36l6 33c3 17 19 59 34 92l29 60 52 58 53 57 83 41 83 41 84 5 84 6 53-12c29-6 77-23 107-37l55-26 59-55 59-55 35-70c20-38 38-85 42-104l6-34h19c23 0 23-6-1 72l-20 64-38 60c-63 97-150 164-264 203l-56 19-63 5-64 6-52-10zm-13-60c-25-5-74-23-110-41l-65-32-52-52-51-53-30-63c-17-35-33-75-36-91l-6-27h40v18c0 29 55 136 91 177 42 47 118 96 183 118l50 17h153l56-19c68-24 132-66 177-117 35-40 90-148 90-176V0h40l-6 28c-3 15-20 56-37 92l-31 65-53 53-53 53-62 29c-99 47-188 59-288 39zm-15-62c-22-8-60-24-84-36l-43-23-44-44-43-45-25-52c-13-29-27-62-31-74l-6-23h39l5 28c3 15 21 52 39 82l33 54 50 38 50 38 50 17 50 17 70-1 70-1 43-16c23-8 63-29 88-47l46-31 32-45c17-25 38-63 47-86l17-42 16-3 16-3v13c0 7-13 41-29 75l-30 62-46 46-46 47-67 31-66 31-81 3-80 3-40-13zm15-56C394 206 306 121 276 23l-7-23h39l6 27c4 14 20 45 36 68l29 43 46 30 46 30 50 12 51 13 51-6 51-7 53-25 53-26 35-43c19-23 41-59 50-79l15-37h31l-7 23c-14 45-43 93-79 130l-36 37-52 27-52 26-80 3-80 3-25-8zm33-51c-53-11-75-23-125-68-33-30-78-97-78-117 0-3 9-5 19-5h19l6 23c3 13 22 41 42 61l37 38 41 19 41 19h113l52-28 53-27 34-50c30-43 63-70 63-50s-45 87-80 119c-49 44-87 61-150 69l-45 5-42-8zm-11-63c-44-16-99-62-117-97L389 0h32l31 36c17 19 44 42 59 50l28 14h102l28-14c15-8 42-31 59-50l31-36h16c24 0 18 14-25 63l-40 45-47 16c-54 19-95 19-141 3zm8-58c-28-11-70-48-70-61 0-15 31-8 61 14l30 23h78l30-23 30-22h44l-24 26c-44 49-119 66-179 43zm10-59L525 0h130l-15 10c-19 13-81 13-100 0z"/>
  </g>
</svg>
